<svg focusable="false" xmlns="http://www.w3.org/2000/svg" viewBox="0 0 32 32"><path fill="#FFF" d="M24.4 21.18c0-.36-.1-.67-.36-.92l-2.8-2.8a1.24 1.24 0 0 0-.92-.38c-.38 0-.7.14-.97.43.02.04.1.12.25.26l.3.3.2.24c.08.12.14.24.17.35.03.1.05.23.05.37 0 .36-.13.66-.38.92a1.25 1.25 0 0 1-.92.37 1.4 1.4 0 0 1-.37-.03 1.06 1.06 0 0 1-.35-.18 2.27 2.27 0 0 1-.25-.2 6.82 6.82 0 0 1-.3-.3l-.24-.25c-.3.28-.44.6-.44.98 0 .36.13.66.38.92l2.78 2.8c.24.23.54.35.9.35.37 0 .68-.12.93-.35l1.98-1.97c.26-.25.38-.55.38-.9zm-9.46-9.5c0-.37-.13-.67-.38-.92l-2.78-2.8a1.24 1.24 0 0 0-.9-.37c-.36 0-.67.1-.93.35L7.97 9.92c-.26.25-.38.55-.38.9 0 .36.1.67.37.92l2.8 2.8c.24.25.55.37.92.37.36 0 .7-.13.96-.4-.03-.04-.1-.12-.26-.26s-.24-.23-.3-.3a2.67 2.67 0 0 1-.2-.24 1.05 1.05 0 0 1-.17-.35 1.4 1.4 0 0 1-.04-.37c0-.36.1-.66.36-.9.26-.26.56-.4.92-.4.14 0 .26.03.37.06.12.03.23.1.35.17.1.1.2.16.25.2l.3.3.24.26c.3-.28.44-.6.44-.98zM27 21.17c0 1.07-.38 2-1.15 2.73l-1.98 1.98c-.74.75-1.66 1.12-2.73 1.12-1.1 0-2-.38-2.75-1.14l-2.8-2.8c-.74-.74-1.1-1.65-1.1-2.73 0-1.1.38-2.04 1.17-2.82l-1.18-1.17c-.8.8-1.72 1.18-2.82 1.18-1.08 0-2-.36-2.75-1.12l-2.8-2.8C5.38 12.8 5 11.9 5 10.82c0-1.08.38-2 1.15-2.74L8.13 6.1C8.87 5.37 9.78 5 10.86 5c1.1 0 2 .38 2.75 1.15l2.8 2.8c.74.73 1.1 1.65 1.1 2.72 0 1.1-.38 2.05-1.17 2.82l1.18 1.18c.8-.8 1.72-1.2 2.82-1.2 1.08 0 2 .4 2.75 1.14l2.8 2.8c.76.76 1.13 1.68 1.13 2.76z"></path></svg>